<?xml version="1.0" encoding="UTF-8"?>
<svg id="Calque_1" data-name="Calque 1" xmlns="http://www.w3.org/2000/svg" viewBox="0 0 425.2 425.2">
  <defs>
    <style>
      .cls-1 {
        fill: #52845c;
      }

      .cls-2 {
        fill: #1f2020;
      }
    </style>
  </defs>
  <g>
    <path class="cls-2" d="M314.01,127.77h-31.24c-1.75,0-3.28,1.17-3.74,2.86l-5.76,21.27c-.45,1.69-1.99,2.87-3.74,2.87h-44.19c-1.75,0-3.28-1.18-3.74-2.87l-5.75-21.27c-.46-1.69-1.99-2.86-3.74-2.86h-57.36c-1.72,0-3.23,1.14-3.72,2.79l-44.84,152.93c-.72,2.48,1.14,4.97,3.72,4.97h31.24c1.75,0,3.29-1.18,3.74-2.86l5.76-21.28c.45-1.68,1.99-2.86,3.74-2.86h44.19c1.75,0,3.28,1.18,3.74,2.87l5.75,21.27c.46,1.68,1.99,2.86,3.74,2.86h57.36c1.72,0,3.23-1.14,3.72-2.79l44.84-152.93c.72-2.49-1.14-4.97-3.72-4.97ZM184.45,217.54h-15.93c-2.56,0-4.41-2.42-3.74-4.89l7.96-29.33c1.04-3.81,6.45-3.81,7.48,0l7.97,29.33c.66,2.47-1.19,4.89-3.74,4.89ZM259.14,203.58l-7.96,29.33c-1.04,3.81-6.44,3.81-7.48,0l-7.96-29.33c-.67-2.47,1.18-4.89,3.73-4.89h15.93c2.56,0,4.41,2.42,3.74,4.89Z"/>
    <rect class="cls-1" x="208.12" y="124.07" width="7.59" height="167.96" rx="3.8" ry="3.8" transform="translate(61.07 -47.76) rotate(15)"/>
  </g>
  <g>
    <path class="cls-2" d="M372.98,90.21h-72.02c-3.36,0-6.08,2.45-6.08,5.48v16.47c0,3.03,2.72,5.48,6.08,5.48h34.55c3.36,0,6.08,2.45,6.08,5.48v28.78h4.14v2.15h-4.14v2.09h9.17v5.1h-9.17v6.41h13.09v5.1h-13.09v6.57h17.72v5.1h-17.72v6.71h22.56v5.1h-22.56v5.1h22.21v5.1h-22.21v5.18h22.21v5.1h-22.21v6.87h17.72v5.1h-17.72v6.64h13.12v5.1h-13.12v6.06h9.55v5.1h-9.55v2.07h4.02v2.15h-4.02v37.24c0,3.03-2.72,5.48-6.08,5.48h-34.55c-3.36,0-6.08,2.45-6.08,5.48v16.47c0,3.03,2.72,5.48,6.08,5.48h72.02c3.36,0,6.08-2.45,6.08-5.48V95.69c0-3.03-2.72-5.48-6.08-5.48Z"/>
    <path class="cls-2" d="M122.96,298.58h-34.55c-3.36,0-6.08-2.45-6.08-5.48v-63.02h-8.33v-5.1h8.33v-6.87h-13.7v-5.1h13.7v-5.18h-13.7v-5.1h13.7v-5.1h-13.7v-5.1h13.7v-6.71h-8.33v-5.1h8.33v-57.57c0-3.03,2.72-5.48,6.08-5.48h34.55c3.36,0,6.08-2.45,6.08-5.48v-16.47c0-3.03-2.72-5.48-6.08-5.48H50.93c-3.36,0-6.08,2.45-6.08,5.48v224.84c0,3.03,2.72,5.48,6.08,5.48h72.02c3.36,0,6.08-2.45,6.08-5.48v-16.47c0-3.03-2.72-5.48-6.08-5.48Z"/>
  </g>
</svg>